M48
;Layer_Color=2894892
;FILE_FORMAT=2:4
INCH,LZ
;TYPE=PLATED
T1F00S00C0.0120
T2F00S00C0.0150
T3F00S00C0.0402
T4F00S00C0.0689
%
T01
X377965Y333835
X374191Y334107
X366991Y336307
X366591Y336907
X366691Y338507
X365961Y338787
X365331Y338077
X364791Y338307
X364025Y338939
X364867Y339914
X364492Y340564
X365142Y340939
X364767Y341588
X365416Y341963
X365791Y341314
X366166Y340664
X365517Y340289
X364117Y341213
X364134Y342351
X363934Y342697
X363501Y342447
X363068Y342197
X363045Y341837
X362202Y341697
X362452Y341264
X362702Y340831
X364367Y342947
X364117Y34338
X364991Y342807
X365488Y343017
X361635Y343679
X365991Y335307
X363867Y343813
X363991Y344307
X363617Y344246
X363367Y344679
X362934Y344429
X362501Y344179
X362068Y343929
X361791Y344107
X366535Y34685
X366491Y349007
T02
X374016Y332677
X365171Y337753
X365991Y345907
X368391Y349307
X382791Y350307
X384191Y346507
T03
X364225Y348021
X363725Y347155
T04
X372441Y355118
Y35315
Y351181
X37874
Y35315
Y355118
M30
