G04*
G04 #@! TF.GenerationSoftware,Altium Limited,CircuitStudio,1.5.2 (30)*
G04*
G04 Layer_Physical_Order=2*
G04 Layer_Color=16737996*
%FSLAX24Y24*%
%MOIN*%
G70*
G01*
G75*
%ADD18C,0.1181*%
%ADD19C,0.0300*%
G36*
X382590Y355914D02*
X382731Y355871D01*
X382861Y355801D01*
X382975Y355708D01*
X383068Y355594D01*
X383091Y355551D01*
X383092Y355551D01*
X389945Y343682D01*
X389944Y343681D01*
X389944Y343681D01*
X389944Y343681D01*
X389991Y343594D01*
X390033Y343454D01*
X390048Y343307D01*
X390033Y343161D01*
X389991Y343020D01*
X389944Y342933D01*
X389944Y342933D01*
X389944Y342933D01*
X389945Y342932D01*
X383092Y331063D01*
X383091Y331063D01*
X383068Y331020D01*
X382975Y330906D01*
X382861Y330813D01*
X382731Y330743D01*
X382590Y330701D01*
X382452Y330687D01*
X382444Y330689D01*
X368737D01*
X368729Y330687D01*
X368591Y330701D01*
X368450Y330743D01*
X368320Y330813D01*
X368206Y330906D01*
X368113Y331020D01*
X368090Y331063D01*
X368089Y331063D01*
X361260Y342892D01*
X361237Y342933D01*
X361237Y342933D01*
X361237Y342933D01*
X361237D01*
X361237Y342933D01*
X361214Y342975D01*
X361190Y343020D01*
X361148Y343161D01*
X361133Y343307D01*
X361148Y343454D01*
X361190Y343594D01*
X361214Y343639D01*
X361237Y343681D01*
X361237Y343681D01*
X361237D01*
X361237Y343681D01*
X361237Y343681D01*
X361260Y343722D01*
X368089Y355551D01*
X368090Y355551D01*
X368113Y355594D01*
X368206Y355708D01*
X368320Y355801D01*
X368450Y355871D01*
X368591Y355914D01*
X368729Y355927D01*
X368737Y355925D01*
X373002D01*
X373010Y355927D01*
X373110Y355914D01*
X373210Y355872D01*
X373296Y355806D01*
X373362Y355720D01*
X373404Y355620D01*
X373416Y355527D01*
X373413Y355512D01*
Y350631D01*
X373416Y350618D01*
X373406Y350547D01*
X373374Y350468D01*
X373322Y350401D01*
X373255Y350349D01*
X373176Y350317D01*
X373140Y350312D01*
X373139Y350312D01*
X373136Y350311D01*
X373090Y350307D01*
X373090D01*
X373042Y350307D01*
X372562D01*
X372541Y350303D01*
X372333Y350290D01*
X372108Y350245D01*
X371891Y350171D01*
X371686Y350070D01*
X371495Y349943D01*
X371323Y349792D01*
X371172Y349619D01*
X371046Y349430D01*
X371045Y349429D01*
X368016Y344183D01*
X368015Y344181D01*
X367915Y343977D01*
X367841Y343760D01*
X367796Y343536D01*
X367781Y343307D01*
X367796Y343078D01*
X367841Y342854D01*
X367915Y342637D01*
X368015Y342433D01*
X368016Y342431D01*
X371045Y337185D01*
X371046Y337184D01*
X371172Y336995D01*
X371323Y336823D01*
X371495Y336671D01*
X371686Y336544D01*
X371891Y336443D01*
X372108Y336369D01*
X372333Y336324D01*
X372560Y336310D01*
X372562Y336309D01*
X378619D01*
X378621Y336310D01*
X378848Y336324D01*
X379073Y336369D01*
X379290Y336443D01*
X379495Y336544D01*
X379686Y336671D01*
X379858Y336823D01*
X380009Y336995D01*
X380135Y337184D01*
X380136Y337185D01*
X383165Y342431D01*
X383166Y342433D01*
X383266Y342637D01*
X383340Y342854D01*
X383385Y343078D01*
X383400Y343307D01*
X383385Y343536D01*
X383340Y343760D01*
X383266Y343977D01*
X383166Y344181D01*
X383165Y344183D01*
X380136Y349429D01*
X380135Y349430D01*
X380009Y349619D01*
X379858Y349792D01*
X379686Y349943D01*
X379495Y350070D01*
X379290Y350171D01*
X379073Y350245D01*
X378848Y350290D01*
X378621Y350305D01*
X378619Y350305D01*
X378101D01*
X378089Y350307D01*
Y350307D01*
X378087Y350306D01*
X378005Y350317D01*
X377926Y350349D01*
X377859Y350401D01*
X377807Y350468D01*
X377775Y350547D01*
X377765Y350618D01*
X377768Y350631D01*
Y355512D01*
X377765Y355527D01*
X377777Y355620D01*
X377819Y355720D01*
X377885Y355806D01*
X377971Y355872D01*
X378071Y355914D01*
X378171Y355927D01*
X378179Y355925D01*
X382444D01*
X382452Y355927D01*
X382590Y355914D01*
D02*
G37*
%LPC*%
G36*
X373103Y350984D02*
X372638D01*
Y350519D01*
X372706Y350540D01*
X372826Y350604D01*
X372932Y350690D01*
X373018Y350796D01*
X373082Y350916D01*
X373103Y350984D01*
D02*
G37*
G36*
X372244Y351843D02*
X372175Y351822D01*
X372055Y351758D01*
X371950Y351672D01*
X371864Y351567D01*
X371800Y351447D01*
X371779Y351378D01*
X372244D01*
Y351843D01*
D02*
G37*
G36*
X372638Y351843D02*
Y351378D01*
X373103D01*
X373082Y351447D01*
X373018Y351567D01*
X372932Y351672D01*
X372826Y351758D01*
X372706Y351822D01*
X372638Y351843D01*
D02*
G37*
G36*
X372244Y350984D02*
X371779D01*
X371800Y350916D01*
X371864Y350796D01*
X371950Y350690D01*
X372055Y350604D01*
X372175Y350540D01*
X372244Y350519D01*
Y350984D01*
D02*
G37*
G36*
X378543Y350984D02*
X378078D01*
X378099Y350916D01*
X378163Y350796D01*
X378250Y350690D01*
X378355Y350604D01*
X378475Y350540D01*
X378543Y350519D01*
Y350984D01*
D02*
G37*
G36*
X379402D02*
X378937D01*
Y350519D01*
X379006Y350540D01*
X379126Y350604D01*
X379231Y350690D01*
X379317Y350796D01*
X379381Y350916D01*
X379402Y350984D01*
D02*
G37*
G36*
X378740Y353803D02*
X378613Y353791D01*
X378490Y353754D01*
X378377Y353693D01*
X378278Y353612D01*
X378197Y353513D01*
X378136Y353400D01*
X378099Y353277D01*
X378086Y353150D01*
X378099Y353022D01*
X378136Y352899D01*
X378197Y352786D01*
X378278Y352687D01*
X378377Y352606D01*
X378490Y352546D01*
X378613Y352508D01*
X378740Y352496D01*
X378868Y352508D01*
X378990Y352546D01*
X379103Y352606D01*
X379202Y352687D01*
X379284Y352786D01*
X379344Y352899D01*
X379381Y353022D01*
X379394Y353150D01*
X379381Y353277D01*
X379344Y353400D01*
X379284Y353513D01*
X379202Y353612D01*
X379103Y353693D01*
X378990Y353754D01*
X378868Y353791D01*
X378740Y353803D01*
D02*
G37*
G36*
X372441Y355772D02*
X372313Y355759D01*
X372191Y355722D01*
X372078Y355662D01*
X371979Y355580D01*
X371897Y355481D01*
X371837Y355368D01*
X371800Y355246D01*
X371787Y355118D01*
X371800Y354991D01*
X371837Y354868D01*
X371897Y354755D01*
X371979Y354656D01*
X372078Y354575D01*
X372191Y354514D01*
X372313Y354477D01*
X372441Y354464D01*
X372568Y354477D01*
X372691Y354514D01*
X372804Y354575D01*
X372903Y354656D01*
X372984Y354755D01*
X373045Y354868D01*
X373082Y354991D01*
X373095Y355118D01*
X373082Y355246D01*
X373045Y355368D01*
X372984Y355481D01*
X372903Y355580D01*
X372804Y355662D01*
X372691Y355722D01*
X372568Y355759D01*
X372441Y355772D01*
D02*
G37*
G36*
X378740D02*
X378613Y355759D01*
X378490Y355722D01*
X378377Y355662D01*
X378278Y355580D01*
X378197Y355481D01*
X378136Y355368D01*
X378099Y355246D01*
X378086Y355118D01*
X378099Y354991D01*
X378136Y354868D01*
X378197Y354755D01*
X378278Y354656D01*
X378377Y354575D01*
X378490Y354514D01*
X378613Y354477D01*
X378740Y354464D01*
X378868Y354477D01*
X378990Y354514D01*
X379103Y354575D01*
X379202Y354656D01*
X379284Y354755D01*
X379344Y354868D01*
X379381Y354991D01*
X379394Y355118D01*
X379381Y355246D01*
X379344Y355368D01*
X379284Y355481D01*
X379202Y355580D01*
X379103Y355662D01*
X378990Y355722D01*
X378868Y355759D01*
X378740Y355772D01*
D02*
G37*
G36*
X378543Y351843D02*
X378475Y351822D01*
X378355Y351758D01*
X378250Y351672D01*
X378163Y351567D01*
X378099Y351447D01*
X378078Y351378D01*
X378543D01*
Y351843D01*
D02*
G37*
G36*
X378937Y351843D02*
Y351378D01*
X379402D01*
X379381Y351447D01*
X379317Y351567D01*
X379231Y351672D01*
X379126Y351758D01*
X379006Y351822D01*
X378937Y351843D01*
D02*
G37*
G36*
X372441Y353803D02*
X372313Y353791D01*
X372191Y353754D01*
X372078Y353693D01*
X371979Y353612D01*
X371897Y353513D01*
X371837Y353400D01*
X371800Y353277D01*
X371787Y353150D01*
X371800Y353022D01*
X371837Y352899D01*
X371897Y352786D01*
X371979Y352687D01*
X372078Y352606D01*
X372191Y352546D01*
X372313Y352508D01*
X372441Y352496D01*
X372568Y352508D01*
X372691Y352546D01*
X372804Y352606D01*
X372903Y352687D01*
X372984Y352786D01*
X373045Y352899D01*
X373082Y353022D01*
X373095Y353150D01*
X373082Y353277D01*
X373045Y353400D01*
X372984Y353513D01*
X372903Y353612D01*
X372804Y353693D01*
X372691Y353754D01*
X372568Y353791D01*
X372441Y353803D01*
D02*
G37*
%LPD*%
D18*
X378740Y353150D02*
D03*
X372441D02*
D03*
X378740Y351181D02*
D03*
X372441D02*
D03*
X378740Y355118D02*
D03*
X372441D02*
D03*
D19*
X382677Y350394D02*
D03*
X384252Y346457D02*
D03*
X378346Y333858D02*
D03*
X374016D02*
D03*
X368504Y349213D02*
D03*
X366142Y345669D02*
D03*
M02*
