G04*
G04 #@! TF.GenerationSoftware,Altium Limited,CircuitStudio,1.5.2 (30)*
G04*
G04 Layer_Physical_Order=1*
G04 Layer_Color=6120410*
%FSLAX24Y24*%
%MOIN*%
G70*
G01*
G75*
%ADD10P,0.0835X4X165.0*%
%ADD11R,0.0591X0.0591*%
%ADD12P,0.0835X4X285.0*%
G04:AMPARAMS|DCode=13|XSize=51.2mil|YSize=33.5mil|CornerRadius=0mil|HoleSize=0mil|Usage=FLASHONLY|Rotation=120.000|XOffset=0mil|YOffset=0mil|HoleType=Round|Shape=Rectangle|*
%AMROTATEDRECTD13*
4,1,4,0.0273,-0.0138,-0.0017,-0.0305,-0.0273,0.0138,0.0017,0.0305,0.0273,-0.0138,0.0*
%
%ADD13ROTATEDRECTD13*%

%ADD14R,0.0512X0.0335*%
G04:AMPARAMS|DCode=15|XSize=51.2mil|YSize=33.5mil|CornerRadius=0mil|HoleSize=0mil|Usage=FLASHONLY|Rotation=240.000|XOffset=0mil|YOffset=0mil|HoleType=Round|Shape=Rectangle|*
%AMROTATEDRECTD15*
4,1,4,-0.0017,0.0305,0.0273,0.0138,0.0017,-0.0305,-0.0273,-0.0138,-0.0017,0.0305,0.0*
%
%ADD15ROTATEDRECTD15*%

%ADD16C,0.0250*%
%ADD17C,0.0200*%
%ADD18C,0.1181*%
%ADD19C,0.0300*%
G36*
X382590Y355914D02*
X382731Y355871D01*
X382861Y355801D01*
X382975Y355708D01*
X383068Y355594D01*
X383091Y355551D01*
X383092Y355551D01*
X389945Y343682D01*
X389944Y343681D01*
X389944Y343681D01*
X389944Y343681D01*
X389991Y343594D01*
X390033Y343454D01*
X390048Y343307D01*
X390033Y343161D01*
X389991Y343020D01*
X389944Y342933D01*
X389944Y342933D01*
X389944Y342933D01*
X389945Y342932D01*
X383092Y331063D01*
X383091Y331063D01*
X383068Y331020D01*
X382975Y330906D01*
X382861Y330813D01*
X382731Y330743D01*
X382590Y330701D01*
X382452Y330687D01*
X382444Y330689D01*
X368737D01*
X368729Y330687D01*
X368591Y330701D01*
X368450Y330743D01*
X368320Y330813D01*
X368206Y330906D01*
X368113Y331020D01*
X368090Y331063D01*
X368089Y331063D01*
X361260Y342892D01*
X361237Y342933D01*
X361237Y342933D01*
X361237Y342933D01*
X361237D01*
X361237Y342933D01*
X361214Y342975D01*
X361190Y343020D01*
X361148Y343161D01*
X361133Y343307D01*
X361148Y343454D01*
X361190Y343594D01*
X361214Y343639D01*
X361237Y343681D01*
X361237Y343681D01*
X361237D01*
X361237Y343681D01*
X361237Y343681D01*
X361260Y343722D01*
X368089Y355551D01*
X368090Y355551D01*
X368113Y355594D01*
X368206Y355708D01*
X368320Y355801D01*
X368450Y355871D01*
X368591Y355914D01*
X368729Y355927D01*
X368737Y355925D01*
X373002D01*
X373010Y355927D01*
X373110Y355914D01*
X373210Y355872D01*
X373296Y355806D01*
X373362Y355720D01*
X373404Y355620D01*
X373416Y355527D01*
X373413Y355512D01*
Y350631D01*
X373416Y350618D01*
X373406Y350547D01*
X373374Y350468D01*
X373322Y350401D01*
X373255Y350349D01*
X373176Y350317D01*
X373140Y350312D01*
X373139Y350312D01*
X373136Y350311D01*
X373090Y350307D01*
X373090D01*
X373042Y350307D01*
X372562D01*
X372541Y350303D01*
X372333Y350290D01*
X372108Y350245D01*
X371891Y350171D01*
X371686Y350070D01*
X371495Y349943D01*
X371323Y349792D01*
X371172Y349619D01*
X371046Y349430D01*
X371045Y349429D01*
X368016Y344183D01*
X368015Y344181D01*
X367915Y343977D01*
X367841Y343760D01*
X367796Y343536D01*
X367781Y343307D01*
X367796Y343078D01*
X367841Y342854D01*
X367915Y342637D01*
X368015Y342433D01*
X368016Y342431D01*
X371045Y337185D01*
X371046Y337184D01*
X371172Y336995D01*
X371323Y336823D01*
X371495Y336671D01*
X371686Y336544D01*
X371891Y336443D01*
X372108Y336369D01*
X372333Y336324D01*
X372560Y336310D01*
X372562Y336309D01*
X378619D01*
X378621Y336310D01*
X378848Y336324D01*
X379073Y336369D01*
X379290Y336443D01*
X379495Y336544D01*
X379686Y336671D01*
X379858Y336823D01*
X380009Y336995D01*
X380135Y337184D01*
X380136Y337185D01*
X383165Y342431D01*
X383166Y342433D01*
X383266Y342637D01*
X383340Y342854D01*
X383385Y343078D01*
X383400Y343307D01*
X383385Y343536D01*
X383340Y343760D01*
X383266Y343977D01*
X383166Y344181D01*
X383165Y344183D01*
X380136Y349429D01*
X380135Y349430D01*
X380009Y349619D01*
X379858Y349792D01*
X379686Y349943D01*
X379495Y350070D01*
X379290Y350171D01*
X379073Y350245D01*
X378848Y350290D01*
X378621Y350305D01*
X378619Y350305D01*
X378101D01*
X378089Y350307D01*
Y350307D01*
X378087Y350306D01*
X378005Y350317D01*
X377926Y350349D01*
X377859Y350401D01*
X377807Y350468D01*
X377775Y350547D01*
X377765Y350618D01*
X377768Y350631D01*
Y355512D01*
X377765Y355527D01*
X377777Y355620D01*
X377819Y355720D01*
X377885Y355806D01*
X377971Y355872D01*
X378071Y355914D01*
X378171Y355927D01*
X378179Y355925D01*
X382444D01*
X382452Y355927D01*
X382590Y355914D01*
D02*
G37*
%LPC*%
G36*
X365811Y346623D02*
X365658Y346358D01*
X365846Y346249D01*
X365999Y346514D01*
X365811Y346623D01*
D02*
G37*
G36*
X365536Y346781D02*
X365383Y346516D01*
X365571Y346408D01*
X365724Y346673D01*
X365536Y346781D01*
D02*
G37*
G36*
X384266Y347613D02*
X383651Y347257D01*
X384006Y346642D01*
X384046Y346665D01*
X384089Y346640D01*
Y346591D01*
X384054Y346539D01*
X384038Y346457D01*
X384054Y346375D01*
X384101Y346305D01*
X384170Y346259D01*
X384252Y346243D01*
X384334Y346259D01*
X384403Y346305D01*
X384450Y346375D01*
X384466Y346457D01*
X384450Y346539D01*
X384415Y346591D01*
Y346878D01*
X384622Y346997D01*
X384266Y347613D01*
D02*
G37*
G36*
X378346Y334072D02*
X378265Y334056D01*
X378213Y334021D01*
X377875D01*
Y334027D01*
X377243D01*
Y333572D01*
X377875D01*
Y333695D01*
X378213D01*
X378265Y333660D01*
X378346Y333644D01*
X378428Y333660D01*
X378498Y333707D01*
X378544Y333776D01*
X378561Y333858D01*
X378544Y333940D01*
X378498Y334010D01*
X378428Y334056D01*
X378346Y334072D01*
D02*
G37*
G36*
X366333Y346744D02*
X366066Y346281D01*
X366026Y346241D01*
X365991Y346188D01*
X365979Y346126D01*
Y345803D01*
X365944Y345751D01*
X365928Y345669D01*
X365944Y345587D01*
X365990Y345518D01*
X366060Y345471D01*
X366142Y345455D01*
X366224Y345471D01*
X366293Y345518D01*
X366340Y345587D01*
X366356Y345669D01*
X366340Y345751D01*
X366305Y345803D01*
Y345980D01*
X366348Y346005D01*
X366411Y345969D01*
X366727Y346516D01*
X366333Y346744D01*
D02*
G37*
G36*
X366014Y346974D02*
X365861Y346709D01*
X366049Y346601D01*
X366202Y346865D01*
X366014Y346974D01*
D02*
G37*
G36*
X366365Y347976D02*
X366192Y347677D01*
X366491Y347504D01*
X366664Y347803D01*
X366365Y347976D01*
D02*
G37*
G36*
X365979Y348199D02*
X365807Y347900D01*
X366106Y347727D01*
X366278Y348026D01*
X365979Y348199D01*
D02*
G37*
G36*
X365757Y347813D02*
X365584Y347514D01*
X365883Y347341D01*
X366056Y347640D01*
X365757Y347813D01*
D02*
G37*
G36*
X365739Y347133D02*
X365586Y346868D01*
X365774Y346759D01*
X365927Y347024D01*
X365739Y347133D01*
D02*
G37*
G36*
X366142Y347590D02*
X365970Y347291D01*
X366269Y347119D01*
X366441Y347418D01*
X366142Y347590D01*
D02*
G37*
G36*
X377509Y333080D02*
X377203D01*
Y332863D01*
X377509D01*
Y333080D01*
D02*
G37*
G36*
X377915D02*
X377609D01*
Y332863D01*
X377915D01*
Y333080D01*
D02*
G37*
G36*
X366915Y347613D02*
X366559Y346997D01*
X366959Y346767D01*
Y345966D01*
X365615Y344622D01*
X365574Y344560D01*
X365559Y344488D01*
Y339370D01*
X365574Y339298D01*
X365615Y339237D01*
X372052Y332800D01*
X372113Y332759D01*
X372185Y332744D01*
X374271D01*
Y332578D01*
X374981D01*
Y333288D01*
X374271D01*
Y333122D01*
X372263D01*
X365937Y339448D01*
Y344410D01*
X367281Y345754D01*
X367322Y345815D01*
X367336Y345888D01*
Y346921D01*
X367530Y347257D01*
X366915Y347613D01*
D02*
G37*
G36*
X376505Y332883D02*
X376160D01*
Y332538D01*
X376505D01*
Y332883D01*
D02*
G37*
G36*
X376950D02*
X376605D01*
Y332538D01*
X376950D01*
Y332883D01*
D02*
G37*
G36*
X376505Y333328D02*
X376160D01*
Y332983D01*
X376505D01*
Y333328D01*
D02*
G37*
G36*
X385187Y348144D02*
X384572Y347789D01*
X384868Y347275D01*
Y339072D01*
X380631Y334834D01*
X377205D01*
X377133Y334820D01*
X377071Y334779D01*
X376644Y334351D01*
X376200D01*
Y333641D01*
X376910D01*
Y334085D01*
X377283Y334457D01*
X380709D01*
X380781Y334471D01*
X380842Y334512D01*
X385190Y338861D01*
X385231Y338922D01*
X385234Y338934D01*
X385246Y338994D01*
Y347357D01*
X385542Y347529D01*
X385187Y348144D01*
D02*
G37*
G36*
X374981Y334351D02*
X374271D01*
Y334021D01*
X374150D01*
X374098Y334056D01*
X374016Y334072D01*
X373934Y334056D01*
X373864Y334010D01*
X373818Y333940D01*
X373802Y333858D01*
X373818Y333776D01*
X373864Y333707D01*
X373934Y333660D01*
X374016Y333644D01*
X374098Y333660D01*
X374150Y333695D01*
X374271D01*
Y333641D01*
X374981D01*
Y334351D01*
D02*
G37*
G36*
X377915Y333397D02*
X377609D01*
Y333180D01*
X377915D01*
Y333397D01*
D02*
G37*
G36*
X376950Y333328D02*
X376605D01*
Y332983D01*
X376950D01*
Y333328D01*
D02*
G37*
G36*
X377509Y333397D02*
X377203D01*
Y333180D01*
X377509D01*
Y333397D01*
D02*
G37*
G36*
X372244Y354921D02*
X371779D01*
X371800Y354853D01*
X371864Y354733D01*
X371950Y354627D01*
X372055Y354541D01*
X372175Y354477D01*
X372244Y354456D01*
Y354921D01*
D02*
G37*
G36*
X378543Y354921D02*
X378078D01*
X378099Y354853D01*
X378163Y354733D01*
X378250Y354627D01*
X378355Y354541D01*
X378475Y354477D01*
X378543Y354456D01*
Y354921D01*
D02*
G37*
G36*
X372441Y353803D02*
X372313Y353791D01*
X372191Y353754D01*
X372078Y353693D01*
X371979Y353612D01*
X371897Y353513D01*
X371837Y353400D01*
X371818Y353338D01*
X370909D01*
X370837Y353324D01*
X370775Y353283D01*
X367180Y349687D01*
X366959Y349815D01*
X366603Y349199D01*
X367219Y348844D01*
X367574Y349459D01*
X367553Y349471D01*
X367547Y349521D01*
X370987Y352961D01*
X371818D01*
X371837Y352899D01*
X371897Y352786D01*
X371979Y352687D01*
X372078Y352606D01*
X372191Y352546D01*
X372313Y352508D01*
X372441Y352496D01*
X372568Y352508D01*
X372691Y352546D01*
X372804Y352606D01*
X372903Y352687D01*
X372984Y352786D01*
X373045Y352899D01*
X373082Y353022D01*
X373095Y353150D01*
X373082Y353277D01*
X373045Y353400D01*
X372984Y353513D01*
X372903Y353612D01*
X372804Y353693D01*
X372691Y353754D01*
X372568Y353791D01*
X372441Y353803D01*
D02*
G37*
G36*
Y351835D02*
X372313Y351822D01*
X372191Y351785D01*
X372078Y351725D01*
X371979Y351643D01*
X371897Y351544D01*
X371837Y351431D01*
X371800Y351309D01*
X371787Y351181D01*
X371800Y351054D01*
X371837Y350931D01*
X371897Y350818D01*
X371979Y350719D01*
X372078Y350638D01*
X372191Y350577D01*
X372313Y350540D01*
X372441Y350527D01*
X372568Y350540D01*
X372691Y350577D01*
X372804Y350638D01*
X372903Y350719D01*
X372984Y350818D01*
X373045Y350931D01*
X373082Y351054D01*
X373095Y351181D01*
X373082Y351309D01*
X373045Y351431D01*
X372984Y351544D01*
X372903Y351643D01*
X372804Y351725D01*
X372691Y351785D01*
X372568Y351822D01*
X372441Y351835D01*
D02*
G37*
G36*
X378740D02*
X378613Y351822D01*
X378490Y351785D01*
X378377Y351725D01*
X378278Y351643D01*
X378197Y351544D01*
X378136Y351431D01*
X378099Y351309D01*
X378086Y351181D01*
X378099Y351054D01*
X378136Y350931D01*
X378197Y350818D01*
X378278Y350719D01*
X378377Y350638D01*
X378490Y350577D01*
X378613Y350540D01*
X378740Y350527D01*
X378868Y350540D01*
X378990Y350577D01*
X379103Y350638D01*
X379202Y350719D01*
X379284Y350818D01*
X379344Y350931D01*
X379381Y351054D01*
X379394Y351181D01*
X379381Y351309D01*
X379344Y351431D01*
X379284Y351544D01*
X379202Y351643D01*
X379103Y351725D01*
X378990Y351785D01*
X378868Y351822D01*
X378740Y351835D01*
D02*
G37*
G36*
X379402Y354921D02*
X378937D01*
Y354456D01*
X379006Y354477D01*
X379126Y354541D01*
X379231Y354627D01*
X379317Y354733D01*
X379381Y354853D01*
X379402Y354921D01*
D02*
G37*
G36*
X378543Y355780D02*
X378475Y355759D01*
X378355Y355695D01*
X378250Y355609D01*
X378163Y355504D01*
X378099Y355384D01*
X378078Y355315D01*
X378543D01*
Y355780D01*
D02*
G37*
G36*
X378937Y355780D02*
Y355315D01*
X379402D01*
X379381Y355384D01*
X379317Y355504D01*
X379231Y355609D01*
X379126Y355695D01*
X379006Y355759D01*
X378937Y355780D01*
D02*
G37*
G36*
X372638Y355780D02*
Y355315D01*
X373103D01*
X373082Y355384D01*
X373018Y355504D01*
X372932Y355609D01*
X372826Y355695D01*
X372706Y355759D01*
X372638Y355780D01*
D02*
G37*
G36*
X373103Y354921D02*
X372638D01*
Y354456D01*
X372706Y354477D01*
X372826Y354541D01*
X372932Y354627D01*
X373018Y354733D01*
X373082Y354853D01*
X373103Y354921D01*
D02*
G37*
G36*
X372244Y355780D02*
X372175Y355759D01*
X372055Y355695D01*
X371950Y355609D01*
X371864Y355504D01*
X371800Y355384D01*
X371779Y355315D01*
X372244D01*
Y355780D01*
D02*
G37*
G36*
X368504Y349427D02*
X368422Y349410D01*
X368353Y349364D01*
X368344Y349352D01*
X368309Y349328D01*
X368123Y349142D01*
X367879Y349283D01*
X367524Y348668D01*
X368139Y348313D01*
X368495Y348928D01*
X368493Y348929D01*
X368486Y348991D01*
X368495Y349000D01*
X368504Y348998D01*
X368586Y349015D01*
X368655Y349061D01*
X368702Y349131D01*
X368718Y349213D01*
X368702Y349295D01*
X368655Y349364D01*
X368586Y349410D01*
X368504Y349427D01*
D02*
G37*
G36*
X383851Y349647D02*
X383552Y349474D01*
X383725Y349175D01*
X384024Y349348D01*
X383851Y349647D01*
D02*
G37*
G36*
X384460Y349484D02*
X384161Y349311D01*
X384333Y349012D01*
X384632Y349185D01*
X384460Y349484D01*
D02*
G37*
G36*
X378740Y353803D02*
X378613Y353791D01*
X378490Y353754D01*
X378377Y353693D01*
X378278Y353612D01*
X378197Y353513D01*
X378136Y353400D01*
X378099Y353277D01*
X378086Y353150D01*
X378099Y353022D01*
X378136Y352899D01*
X378197Y352786D01*
X378278Y352687D01*
X378377Y352606D01*
X378490Y352546D01*
X378613Y352508D01*
X378740Y352496D01*
X378868Y352508D01*
X378914Y352522D01*
X382772Y348665D01*
X382833Y348624D01*
X382866Y348617D01*
X383042Y348313D01*
X383657Y348668D01*
X383302Y349283D01*
X382912Y349058D01*
X379238Y352731D01*
X379284Y352786D01*
X379344Y352899D01*
X379381Y353022D01*
X379394Y353150D01*
X379381Y353277D01*
X379344Y353400D01*
X379284Y353513D01*
X379202Y353612D01*
X379103Y353693D01*
X378990Y353754D01*
X378868Y353791D01*
X378740Y353803D01*
D02*
G37*
G36*
X384074Y349261D02*
X383775Y349089D01*
X383948Y348789D01*
X384247Y348962D01*
X384074Y349261D01*
D02*
G37*
G36*
X382677Y350608D02*
X382595Y350592D01*
X382526Y350545D01*
X382479Y350476D01*
X382463Y350394D01*
X382479Y350312D01*
X382514Y350260D01*
Y349942D01*
X382486Y349926D01*
X382801Y349379D01*
X383195Y349606D01*
X382879Y350153D01*
Y350153D01*
X382879Y350153D01*
X382840Y350180D01*
Y350260D01*
X382875Y350312D01*
X382891Y350394D01*
X382875Y350476D01*
X382829Y350545D01*
X382759Y350592D01*
X382677Y350608D01*
D02*
G37*
G36*
X383199Y350384D02*
X383011Y350275D01*
X383163Y350010D01*
X383352Y350119D01*
X383199Y350384D01*
D02*
G37*
G36*
X383474Y350542D02*
X383285Y350434D01*
X383438Y350169D01*
X383626Y350277D01*
X383474Y350542D01*
D02*
G37*
G36*
X383676Y350191D02*
X383488Y350082D01*
X383641Y349817D01*
X383829Y349926D01*
X383676Y350191D01*
D02*
G37*
G36*
X384237Y349869D02*
X383938Y349697D01*
X384111Y349398D01*
X384410Y349570D01*
X384237Y349869D01*
D02*
G37*
G36*
X383402Y350032D02*
X383213Y349924D01*
X383366Y349659D01*
X383555Y349767D01*
X383402Y350032D01*
D02*
G37*
%LPD*%
D10*
X384092Y349329D02*
D03*
X383172Y348798D02*
D03*
X384136Y347127D02*
D03*
X385057Y347659D02*
D03*
D11*
X376555Y332933D02*
D03*
Y333996D02*
D03*
X374626D02*
D03*
Y332933D02*
D03*
D12*
X366124Y347659D02*
D03*
X367045Y347127D02*
D03*
X368009Y348798D02*
D03*
X367089Y349329D02*
D03*
D13*
X382840Y349766D02*
D03*
X383420Y350100D02*
D03*
D14*
X377559Y333799D02*
D03*
Y333130D02*
D03*
D15*
X366372Y346356D02*
D03*
X365793Y346691D02*
D03*
D16*
X382905Y348798D02*
X383172D01*
X378740Y352963D02*
X382905Y348798D01*
X378740Y352963D02*
Y353150D01*
X367045Y347127D02*
X367147Y347025D01*
Y345888D02*
Y347025D01*
X365748Y344488D02*
X367147Y345888D01*
X365748Y339370D02*
Y344488D01*
Y339370D02*
X372185Y332933D01*
X374626D01*
X385057Y338994D02*
Y347659D01*
X380709Y334646D02*
X385057Y338994D01*
X377205Y334646D02*
X380709D01*
X376555Y333996D02*
X377205Y334646D01*
X367089Y349329D02*
X370909Y353150D01*
X372441D01*
D17*
X382677Y349929D02*
X382840Y349766D01*
X382677Y349929D02*
Y350394D01*
X384252Y346457D02*
Y347012D01*
X377559Y333799D02*
X377618Y333858D01*
X378346D01*
X374016D02*
X374488D01*
X368009Y348798D02*
X368424Y349213D01*
X368504D01*
X366142Y346126D02*
X366372Y346356D01*
X366142Y345669D02*
Y346126D01*
D18*
X378740Y353150D02*
D03*
X372441D02*
D03*
X378740Y351181D02*
D03*
X372441D02*
D03*
X378740Y355118D02*
D03*
X372441D02*
D03*
D19*
X382677Y350394D02*
D03*
X384252Y346457D02*
D03*
X378346Y333858D02*
D03*
X374016D02*
D03*
X368504Y349213D02*
D03*
X366142Y345669D02*
D03*
M02*
