G04*
G04 #@! TF.GenerationSoftware,Altium Limited,CircuitStudio,1.5.2 (30)*
G04*
G04 Layer_Color=16720538*
%FSLAX24Y24*%
%MOIN*%
G70*
G01*
G75*
%ADD65C,0.0005*%
%ADD66C,0.0005*%
%ADD67C,0.0010*%
D65*
X377559Y350631D02*
G03*
X378089Y350101I530J0D01*
G01*
X373092D02*
G03*
X373622Y350631I0J530D01*
G01*
X378179Y356132D02*
G03*
X377559Y355512I0J-620D01*
G01*
X373622Y355512D02*
G03*
X373002Y356132I-620J0D01*
G01*
D66*
X379958Y349326D02*
G03*
X378619Y350098I-1338J-773D01*
G01*
X382986Y342534D02*
G03*
X382986Y344080I-1338J773D01*
G01*
X378619Y336516D02*
G03*
X379958Y337288I0J1545D01*
G01*
X371223D02*
G03*
X372562Y336516I1338J773D01*
G01*
X368195Y344080D02*
G03*
X368195Y342534I1338J-773D01*
G01*
X372562Y350098D02*
G03*
X371223Y349326I0J-1545D01*
G01*
X361057Y343784D02*
G03*
X361057Y342830I827J-477D01*
G01*
X382444Y330482D02*
G03*
X383271Y330960I0J955D01*
G01*
X390124Y342830D02*
G03*
X390124Y343784I-827J477D01*
G01*
X383271Y355655D02*
G03*
X382444Y356132I-827J-477D01*
G01*
X368737D02*
G03*
X367911Y355655I0J-955D01*
G01*
X361057Y343784D02*
G03*
X361057Y342830I827J-477D01*
G01*
X367911Y330960D02*
G03*
X368737Y330482I827J477D01*
G01*
X378092Y350098D02*
X378619D01*
X378179Y356132D02*
X382444D01*
X368737D02*
X373002D01*
X379958Y349326D02*
X382986Y344080D01*
X379958Y337288D02*
X382986Y342534D01*
X372562Y336516D02*
X378619D01*
X368195Y342534D02*
X371223Y337288D01*
X368195Y344080D02*
X371223Y349326D01*
X368737Y330482D02*
X382444D01*
X383271Y330960D02*
X390124Y342830D01*
X383271Y355655D02*
X390124Y343784D01*
X361057D02*
X367911Y355655D01*
X361057Y342830D02*
X367911Y330960D01*
D67*
X377559Y350631D02*
Y355512D01*
X372562Y350098D02*
X373090D01*
X373622Y350631D02*
Y355512D01*
M02*
