G04*
G04 #@! TF.GenerationSoftware,Altium Limited,CircuitStudio,1.5.2 (30)*
G04*
G04 Layer_Physical_Order=2*
G04 Layer_Color=16737996*
%FSLAX24Y24*%
%MOIN*%
G70*
G01*
G75*
%ADD30C,0.0080*%
%ADD31C,0.0150*%
%ADD33C,0.0200*%
%ADD35C,0.1181*%
%ADD36C,0.0240*%
%ADD37C,0.0803*%
%ADD38C,0.0250*%
%ADD39C,0.0300*%
G36*
X382590Y355914D02*
X382731Y355871D01*
X382861Y355801D01*
X382975Y355708D01*
X383068Y355594D01*
X383091Y355551D01*
X383092Y355551D01*
X389945Y343682D01*
X389944Y343681D01*
X389944Y343681D01*
X389944Y343681D01*
X389991Y343594D01*
X390033Y343454D01*
X390048Y343307D01*
X390033Y343161D01*
X389991Y343020D01*
X389944Y342933D01*
X389944Y342933D01*
X389944Y342933D01*
X389945Y342932D01*
X383092Y331063D01*
X383091Y331063D01*
X383068Y331020D01*
X382975Y330906D01*
X382861Y330813D01*
X382731Y330743D01*
X382590Y330701D01*
X382452Y330687D01*
X382444Y330689D01*
X368737D01*
X368729Y330687D01*
X368591Y330701D01*
X368450Y330743D01*
X368320Y330813D01*
X368206Y330906D01*
X368113Y331020D01*
X368090Y331063D01*
X368089Y331063D01*
X361925Y341741D01*
X361937Y341789D01*
X363970Y342962D01*
X363182Y344326D01*
X361196Y343179D01*
X361143Y343207D01*
X361133Y343307D01*
X361148Y343454D01*
X361190Y343594D01*
X361214Y343639D01*
X361237Y343681D01*
X361237Y343681D01*
X361237D01*
X361237Y343681D01*
X361237Y343681D01*
X361260Y343722D01*
X363215Y347109D01*
X363267Y347099D01*
X363275Y347035D01*
X363322Y346923D01*
X363396Y346826D01*
X363492Y346752D01*
X363605Y346706D01*
X363725Y346690D01*
X363846Y346706D01*
X363958Y346752D01*
X364054Y346826D01*
X364128Y346923D01*
X364175Y347035D01*
X364191Y347155D01*
X364175Y347276D01*
X364128Y347388D01*
X364054Y347485D01*
X363958Y347559D01*
X363846Y347605D01*
X363725Y347621D01*
X363605Y347605D01*
X363545Y347581D01*
X363510Y347620D01*
X363715Y347975D01*
X363767Y347965D01*
X363775Y347901D01*
X363822Y347789D01*
X363896Y347692D01*
X363992Y347618D01*
X364105Y347572D01*
X364225Y347556D01*
X364346Y347572D01*
X364458Y347618D01*
X364554Y347692D01*
X364628Y347789D01*
X364675Y347901D01*
X364691Y348021D01*
X364675Y348142D01*
X364628Y348254D01*
X364554Y348351D01*
X364458Y348425D01*
X364346Y348471D01*
X364225Y348487D01*
X364105Y348471D01*
X364045Y348447D01*
X364010Y348486D01*
X368089Y355551D01*
X368090Y355551D01*
X368113Y355594D01*
X368206Y355708D01*
X368320Y355801D01*
X368450Y355871D01*
X368591Y355914D01*
X368729Y355927D01*
X368737Y355925D01*
X373002D01*
X373010Y355927D01*
X373110Y355914D01*
X373210Y355872D01*
X373296Y355806D01*
X373362Y355720D01*
X373404Y355620D01*
X373416Y355527D01*
X373413Y355512D01*
Y350631D01*
X373416Y350618D01*
X373406Y350547D01*
X373374Y350468D01*
X373322Y350401D01*
X373255Y350349D01*
X373176Y350317D01*
X373140Y350312D01*
X373139Y350312D01*
X373136Y350311D01*
X373090Y350307D01*
X373090D01*
X373042Y350307D01*
X372562D01*
X372541Y350303D01*
X372333Y350290D01*
X372108Y350245D01*
X371891Y350171D01*
X371686Y350070D01*
X371495Y349943D01*
X371323Y349792D01*
X371172Y349619D01*
X371046Y349430D01*
X371045Y349429D01*
X368016Y344183D01*
X368015Y344181D01*
X367915Y343977D01*
X367841Y343760D01*
X367796Y343536D01*
X367781Y343307D01*
X367796Y343078D01*
X367841Y342854D01*
X367915Y342637D01*
X368015Y342433D01*
X368016Y342431D01*
X371045Y337185D01*
X371046Y337184D01*
X371172Y336995D01*
X371323Y336823D01*
X371495Y336671D01*
X371686Y336544D01*
X371891Y336443D01*
X372108Y336369D01*
X372333Y336324D01*
X372560Y336310D01*
X372562Y336309D01*
X378619D01*
X378621Y336310D01*
X378848Y336324D01*
X379073Y336369D01*
X379290Y336443D01*
X379495Y336544D01*
X379686Y336671D01*
X379858Y336823D01*
X380009Y336995D01*
X380135Y337184D01*
X380136Y337185D01*
X383165Y342431D01*
X383166Y342433D01*
X383266Y342637D01*
X383340Y342854D01*
X383385Y343078D01*
X383400Y343307D01*
X383385Y343536D01*
X383340Y343760D01*
X383266Y343977D01*
X383166Y344181D01*
X383165Y344183D01*
X380136Y349429D01*
X380135Y349430D01*
X380009Y349619D01*
X379858Y349792D01*
X379686Y349943D01*
X379495Y350070D01*
X379290Y350171D01*
X379073Y350245D01*
X378848Y350290D01*
X378621Y350305D01*
X378619Y350305D01*
X378101D01*
X378089Y350307D01*
Y350307D01*
X378087Y350306D01*
X378005Y350317D01*
X377926Y350349D01*
X377859Y350401D01*
X377807Y350468D01*
X377775Y350547D01*
X377765Y350618D01*
X377768Y350631D01*
Y355512D01*
X377765Y355527D01*
X377777Y355620D01*
X377819Y355720D01*
X377885Y355806D01*
X377971Y355872D01*
X378071Y355914D01*
X378171Y355927D01*
X378179Y355925D01*
X382444D01*
X382452Y355927D01*
X382590Y355914D01*
D02*
G37*
%LPC*%
G36*
X364099Y341145D02*
X363957Y341063D01*
X363981Y341035D01*
X364059Y340996D01*
X364146Y340991D01*
X364181Y341002D01*
X364099Y341145D01*
D02*
G37*
G36*
X365112Y341161D02*
X365078Y341149D01*
X365160Y341007D01*
X365302Y341089D01*
X365278Y341117D01*
X365200Y341155D01*
X365112Y341161D01*
D02*
G37*
G36*
X366016Y340825D02*
X365988Y340801D01*
X365950Y340722D01*
X365944Y340635D01*
X365956Y340600D01*
X366098Y340682D01*
X366016Y340825D01*
D02*
G37*
G36*
X365352Y341002D02*
X365210Y340920D01*
X365292Y340778D01*
X365320Y340802D01*
X365358Y340881D01*
X365364Y340968D01*
X365352Y341002D01*
D02*
G37*
G36*
X365773Y341245D02*
X365631Y341163D01*
X365655Y341136D01*
X365733Y341097D01*
X365821Y341091D01*
X365855Y341103D01*
X365773Y341245D01*
D02*
G37*
G36*
X365641Y341474D02*
X365613Y341450D01*
X365575Y341372D01*
X365569Y341284D01*
X365581Y341250D01*
X365723Y341332D01*
X365641Y341474D01*
D02*
G37*
G36*
X365762Y341536D02*
X365727Y341524D01*
X365810Y341382D01*
X365952Y341464D01*
X365928Y341492D01*
X365849Y341530D01*
X365762Y341536D01*
D02*
G37*
G36*
X363967Y341374D02*
X363939Y341350D01*
X363901Y341271D01*
X363895Y341184D01*
X363907Y341149D01*
X364049Y341231D01*
X363967Y341374D01*
D02*
G37*
G36*
X366002Y341377D02*
X365860Y341295D01*
X365942Y341153D01*
X365969Y341177D01*
X366008Y341256D01*
X366014Y341343D01*
X366002Y341377D01*
D02*
G37*
G36*
X364342Y340724D02*
X364314Y340700D01*
X364276Y340622D01*
X364270Y340534D01*
X364282Y340500D01*
X364424Y340582D01*
X364342Y340724D01*
D02*
G37*
G36*
X365078Y339978D02*
X364935Y339896D01*
X365018Y339753D01*
X365045Y339778D01*
X365084Y339856D01*
X365090Y339943D01*
X365078Y339978D01*
D02*
G37*
G36*
X364717Y340075D02*
X364689Y340051D01*
X364651Y339972D01*
X364645Y339885D01*
X364657Y339850D01*
X364799Y339932D01*
X364717Y340075D01*
D02*
G37*
G36*
X366491Y349196D02*
X366418Y349181D01*
X366357Y349140D01*
X366316Y349079D01*
X366303Y349015D01*
X366178Y348889D01*
X366148Y348845D01*
X366138Y348792D01*
Y346025D01*
X366138Y346025D01*
Y345790D01*
X366138Y345789D01*
Y340936D01*
X366137Y340886D01*
X366102Y340875D01*
X366210Y340689D01*
X366166Y340664D01*
X366191Y340621D01*
X366006Y340514D01*
X366030Y340486D01*
X366108Y340447D01*
X366111Y340447D01*
X366138Y340413D01*
Y338922D01*
X366148Y338870D01*
X366178Y338825D01*
X366503Y338500D01*
X366516Y338435D01*
X366557Y338374D01*
X366618Y338333D01*
X366691Y338318D01*
X366763Y338333D01*
X366824Y338374D01*
X366865Y338435D01*
X366879Y338507D01*
X366865Y338579D01*
X366824Y338640D01*
X366763Y338681D01*
X366698Y338694D01*
X366413Y338979D01*
Y340356D01*
X366519Y340461D01*
X366548Y340506D01*
X366559Y340558D01*
X366559Y340558D01*
Y340770D01*
X366559Y340770D01*
X366548Y340822D01*
X366519Y340867D01*
X366413Y340973D01*
Y345788D01*
X366413Y345789D01*
Y346025D01*
X366413Y346026D01*
Y346216D01*
X366463Y346237D01*
X366753Y345947D01*
Y339307D01*
X366763Y339254D01*
X366793Y339210D01*
X373423Y332580D01*
X373468Y332550D01*
X373520Y332540D01*
X373855D01*
X373864Y332526D01*
X373934Y332479D01*
X374016Y332463D01*
X374098Y332479D01*
X374167Y332526D01*
X374214Y332595D01*
X374230Y332677D01*
X374214Y332759D01*
X374167Y332829D01*
X374098Y332875D01*
X374016Y332891D01*
X373934Y332875D01*
X373864Y332829D01*
X373855Y332815D01*
X373577D01*
X367028Y339364D01*
Y346004D01*
X367028Y346004D01*
X367018Y346057D01*
X366988Y346101D01*
X366988Y346101D01*
X366673Y346416D01*
Y346723D01*
X366710Y346778D01*
X366724Y346850D01*
X366710Y346923D01*
X366669Y346984D01*
X366608Y347025D01*
X366535Y347039D01*
X366463Y347025D01*
X366457Y347021D01*
X366413Y347044D01*
Y348735D01*
X366498Y348820D01*
X366563Y348833D01*
X366624Y348874D01*
X366665Y348935D01*
X366679Y349007D01*
X366665Y349079D01*
X366624Y349140D01*
X366563Y349181D01*
X366491Y349196D01*
D02*
G37*
G36*
X364849Y339846D02*
X364707Y339764D01*
X364731Y339736D01*
X364809Y339697D01*
X364897Y339692D01*
X364931Y339703D01*
X364849Y339846D01*
D02*
G37*
G36*
X364838Y340136D02*
X364803Y340125D01*
X364885Y339982D01*
X365028Y340065D01*
X365004Y340092D01*
X364925Y340131D01*
X364838Y340136D01*
D02*
G37*
G36*
X365366Y340450D02*
X365339Y340426D01*
X365300Y340347D01*
X365294Y340260D01*
X365306Y340225D01*
X365448Y340307D01*
X365366Y340450D01*
D02*
G37*
G36*
X365487Y340511D02*
X365453Y340500D01*
X365535Y340357D01*
X365677Y340440D01*
X365653Y340467D01*
X365575Y340506D01*
X365487Y340511D01*
D02*
G37*
G36*
X365498Y340221D02*
X365356Y340139D01*
X365380Y340111D01*
X365459Y340072D01*
X365546Y340067D01*
X365581Y340078D01*
X365498Y340221D01*
D02*
G37*
G36*
X365727Y340353D02*
X365585Y340271D01*
X365667Y340128D01*
X365695Y340153D01*
X365733Y340231D01*
X365739Y340318D01*
X365727Y340353D01*
D02*
G37*
G36*
X372638Y351843D02*
Y351378D01*
X373103D01*
X373082Y351447D01*
X373018Y351567D01*
X372932Y351672D01*
X372826Y351758D01*
X372706Y351822D01*
X372638Y351843D01*
D02*
G37*
G36*
X378543Y351843D02*
X378475Y351822D01*
X378355Y351758D01*
X378250Y351672D01*
X378163Y351567D01*
X378099Y351447D01*
X378078Y351378D01*
X378543D01*
Y351843D01*
D02*
G37*
G36*
X373103Y350984D02*
X372638D01*
Y350519D01*
X372706Y350540D01*
X372826Y350604D01*
X372932Y350690D01*
X373018Y350796D01*
X373082Y350916D01*
X373103Y350984D01*
D02*
G37*
G36*
X372244Y351843D02*
X372175Y351822D01*
X372055Y351758D01*
X371950Y351672D01*
X371864Y351567D01*
X371800Y351447D01*
X371779Y351378D01*
X372244D01*
Y351843D01*
D02*
G37*
G36*
X378937Y351843D02*
Y351378D01*
X379402D01*
X379381Y351447D01*
X379317Y351567D01*
X379231Y351672D01*
X379126Y351758D01*
X379006Y351822D01*
X378937Y351843D01*
D02*
G37*
G36*
X372441Y355772D02*
X372313Y355759D01*
X372191Y355722D01*
X372078Y355662D01*
X371979Y355580D01*
X371897Y355481D01*
X371837Y355368D01*
X371800Y355246D01*
X371787Y355118D01*
X371800Y354991D01*
X371837Y354868D01*
X371897Y354755D01*
X371979Y354656D01*
X372078Y354575D01*
X372191Y354514D01*
X372313Y354477D01*
X372441Y354464D01*
X372568Y354477D01*
X372691Y354514D01*
X372804Y354575D01*
X372903Y354656D01*
X372984Y354755D01*
X373045Y354868D01*
X373082Y354991D01*
X373095Y355118D01*
X373082Y355246D01*
X373045Y355368D01*
X372984Y355481D01*
X372903Y355580D01*
X372804Y355662D01*
X372691Y355722D01*
X372568Y355759D01*
X372441Y355772D01*
D02*
G37*
G36*
X378740D02*
X378613Y355759D01*
X378490Y355722D01*
X378377Y355662D01*
X378278Y355580D01*
X378197Y355481D01*
X378136Y355368D01*
X378099Y355246D01*
X378086Y355118D01*
X378099Y354991D01*
X378136Y354868D01*
X378197Y354755D01*
X378278Y354656D01*
X378377Y354575D01*
X378490Y354514D01*
X378613Y354477D01*
X378740Y354464D01*
X378868Y354477D01*
X378990Y354514D01*
X379103Y354575D01*
X379202Y354656D01*
X379284Y354755D01*
X379344Y354868D01*
X379381Y354991D01*
X379394Y355118D01*
X379381Y355246D01*
X379344Y355368D01*
X379284Y355481D01*
X379202Y355580D01*
X379103Y355662D01*
X378990Y355722D01*
X378868Y355759D01*
X378740Y355772D01*
D02*
G37*
G36*
X372441Y353803D02*
X372313Y353791D01*
X372191Y353754D01*
X372078Y353693D01*
X371979Y353612D01*
X371897Y353513D01*
X371837Y353400D01*
X371800Y353277D01*
X371797Y353252D01*
X369633D01*
X369594Y353244D01*
X369561Y353222D01*
X365415Y349076D01*
X365393Y349043D01*
X365386Y349004D01*
Y343171D01*
X365354Y343150D01*
X365313Y343089D01*
X365299Y343017D01*
X365313Y342945D01*
X365354Y342883D01*
X365415Y342842D01*
X365488Y342828D01*
X365560Y342842D01*
X365621Y342883D01*
X365662Y342945D01*
X365676Y343017D01*
X365662Y343089D01*
X365621Y343150D01*
X365590Y343171D01*
Y348962D01*
X369675Y353048D01*
X371797D01*
X371800Y353022D01*
X371837Y352899D01*
X371897Y352786D01*
X371979Y352687D01*
X372078Y352606D01*
X372191Y352546D01*
X372313Y352508D01*
X372441Y352496D01*
X372568Y352508D01*
X372691Y352546D01*
X372804Y352606D01*
X372903Y352687D01*
X372984Y352786D01*
X373045Y352899D01*
X373082Y353022D01*
X373095Y353150D01*
X373082Y353277D01*
X373045Y353400D01*
X372984Y353513D01*
X372903Y353612D01*
X372804Y353693D01*
X372691Y353754D01*
X372568Y353791D01*
X372441Y353803D01*
D02*
G37*
G36*
X378740D02*
X378613Y353791D01*
X378490Y353754D01*
X378377Y353693D01*
X378278Y353612D01*
X378197Y353513D01*
X378136Y353400D01*
X378099Y353277D01*
X378086Y353150D01*
X378099Y353022D01*
X378136Y352899D01*
X378197Y352786D01*
X378278Y352687D01*
X378377Y352606D01*
X378490Y352546D01*
X378613Y352508D01*
X378740Y352496D01*
X378868Y352508D01*
X378990Y352546D01*
X379103Y352606D01*
X379202Y352687D01*
X379284Y352786D01*
X379344Y352899D01*
X379381Y353022D01*
X379394Y353150D01*
X379381Y353277D01*
X379344Y353400D01*
X379284Y353513D01*
X379202Y353612D01*
X379103Y353693D01*
X378990Y353754D01*
X378868Y353791D01*
X378740Y353803D01*
D02*
G37*
G36*
X379402Y350984D02*
X378937D01*
Y350519D01*
X379006Y350540D01*
X379126Y350604D01*
X379231Y350690D01*
X379317Y350796D01*
X379381Y350916D01*
X379402Y350984D01*
D02*
G37*
G36*
X365398Y341895D02*
X365256Y341813D01*
X365280Y341785D01*
X365358Y341746D01*
X365446Y341741D01*
X365480Y341752D01*
X365398Y341895D01*
D02*
G37*
G36*
X365627Y342027D02*
X365485Y341945D01*
X365567Y341802D01*
X365594Y341827D01*
X365633Y341905D01*
X365639Y341992D01*
X365627Y342027D01*
D02*
G37*
G36*
X364977Y341652D02*
X364835Y341570D01*
X364917Y341427D01*
X364945Y341452D01*
X364983Y341530D01*
X364989Y341617D01*
X364977Y341652D01*
D02*
G37*
G36*
X364737Y341810D02*
X364703Y341799D01*
X364785Y341656D01*
X364927Y341739D01*
X364903Y341766D01*
X364825Y341805D01*
X364737Y341810D01*
D02*
G37*
G36*
X365266Y342124D02*
X365238Y342100D01*
X365200Y342021D01*
X365194Y341934D01*
X365206Y341899D01*
X365348Y341981D01*
X365266Y342124D01*
D02*
G37*
G36*
X372244Y350984D02*
X371779D01*
X371800Y350916D01*
X371864Y350796D01*
X371950Y350690D01*
X372055Y350604D01*
X372175Y350540D01*
X372244Y350519D01*
Y350984D01*
D02*
G37*
G36*
X378543Y350984D02*
X378078D01*
X378099Y350916D01*
X378163Y350796D01*
X378250Y350690D01*
X378355Y350604D01*
X378475Y350540D01*
X378543Y350519D01*
Y350984D01*
D02*
G37*
G36*
X364991Y342996D02*
X364918Y342981D01*
X364857Y342940D01*
X364816Y342879D01*
X364802Y342807D01*
X364816Y342735D01*
X364857Y342674D01*
X364889Y342653D01*
Y342549D01*
X364814Y342269D01*
X364307Y341977D01*
X364236Y342100D01*
X364267Y342217D01*
X364267Y342217D01*
X364308Y342278D01*
X364323Y342351D01*
X364308Y342423D01*
X364267Y342484D01*
X364206Y342525D01*
X364134Y342539D01*
X364062Y342525D01*
X364001Y342484D01*
X363960Y342423D01*
X363945Y342351D01*
X363954Y342308D01*
X363903Y342120D01*
X363903Y342120D01*
X363899Y342056D01*
X363919Y341996D01*
X363919Y341996D01*
X364229Y341459D01*
X364194Y341421D01*
X364175Y341430D01*
X364088Y341436D01*
X364053Y341424D01*
X364160Y341238D01*
X364268Y341052D01*
X364295Y341077D01*
X364334Y341155D01*
X364335Y341176D01*
X364386Y341187D01*
X364604Y340809D01*
X364569Y340771D01*
X364550Y340780D01*
X364463Y340786D01*
X364428Y340774D01*
X364536Y340589D01*
X364492Y340564D01*
X364517Y340520D01*
X364332Y340413D01*
X364343Y340400D01*
X364341Y340341D01*
X364270Y340301D01*
X364270Y340301D01*
X364223Y340259D01*
X364194Y340202D01*
X363892Y339073D01*
X363892Y339073D01*
X363851Y339011D01*
X363836Y338939D01*
X363851Y338867D01*
X363892Y338806D01*
X363927Y338782D01*
X364484Y337818D01*
X364484Y337818D01*
X364521Y337776D01*
X364526Y337771D01*
X364526Y337771D01*
X364555Y337756D01*
X364583Y337742D01*
X364583D01*
X365001Y337630D01*
X365020Y337602D01*
X365089Y337556D01*
X365171Y337539D01*
X365253Y337556D01*
X365323Y337602D01*
X365369Y337672D01*
X365386Y337753D01*
X365369Y337835D01*
X365359Y337851D01*
X365378Y337897D01*
X365403Y337902D01*
X365465Y337943D01*
X365506Y338005D01*
X365520Y338077D01*
X365506Y338149D01*
X365465Y338210D01*
X365403Y338251D01*
X365331Y338265D01*
X365259Y338251D01*
X365198Y338210D01*
X365157Y338149D01*
X365143Y338077D01*
X365155Y338015D01*
X365147Y337989D01*
X365127Y337959D01*
X365089Y337951D01*
X365082Y337946D01*
X364733Y338040D01*
X364214Y338939D01*
X364214Y338939D01*
X364205Y338981D01*
X364492Y340052D01*
X364814Y340238D01*
X364862Y340280D01*
X364890Y340337D01*
Y340337D01*
X364988Y340702D01*
X364988Y340702D01*
X364989Y340713D01*
X365041Y340743D01*
X365084Y340722D01*
X365171Y340716D01*
X365206Y340728D01*
X365098Y340914D01*
X364991Y341099D01*
X364964Y341075D01*
X364928Y341002D01*
X364878Y340988D01*
X364678Y341335D01*
X364715Y341371D01*
X364796Y341366D01*
X364831Y341377D01*
X364723Y341563D01*
X364616Y341749D01*
X364589Y341725D01*
X364553Y341651D01*
X364503Y341637D01*
X364427Y341770D01*
X364440Y341818D01*
X364952Y342114D01*
X364982Y342140D01*
X365000Y342176D01*
X365089Y342510D01*
X365090Y342523D01*
X365093Y342536D01*
Y342653D01*
X365124Y342674D01*
X365165Y342735D01*
X365179Y342807D01*
X365165Y342879D01*
X365124Y342940D01*
X365063Y342981D01*
X364991Y342996D01*
D02*
G37*
G36*
X365387Y342186D02*
X365352Y342174D01*
X365435Y342031D01*
X365577Y342114D01*
X365553Y342141D01*
X365474Y342180D01*
X365387Y342186D01*
D02*
G37*
%LPD*%
D30*
X364901Y342202D02*
X364991Y342536D01*
Y342807D01*
X364217Y341807D02*
X364901Y342202D01*
X369633Y353150D02*
X372441D01*
X365488Y349004D02*
X369633Y353150D01*
X365488Y343017D02*
Y349004D01*
D31*
X366275Y348792D02*
X366491Y349007D01*
X366275Y346025D02*
Y348792D01*
Y346025D02*
X366276Y346025D01*
Y345789D02*
Y346025D01*
X366275Y345789D02*
X366276Y345789D01*
X366275Y340916D02*
Y345789D01*
Y340916D02*
X366421Y340770D01*
Y340558D02*
Y340770D01*
X366275Y340413D02*
X366421Y340558D01*
X366275Y338922D02*
Y340413D01*
Y338922D02*
X366691Y338507D01*
X366535Y346359D02*
X366891Y346004D01*
Y339307D02*
Y346004D01*
Y339307D02*
X373520Y332677D01*
X374016D01*
X366535Y346359D02*
Y346850D01*
D33*
X364352Y340159D02*
X364733Y340379D01*
X364061Y342077D02*
X364830Y340744D01*
X364733Y340379D02*
X364830Y340744D01*
X364025Y338939D02*
X364352Y340159D01*
X364061Y342077D02*
X364134Y342351D01*
X364625Y337900D02*
X365171Y337753D01*
X364025Y338939D02*
X364625Y337900D01*
D35*
X372441Y353150D02*
D03*
X378740D02*
D03*
Y351181D02*
D03*
X372441D02*
D03*
X378740Y355118D02*
D03*
X372441D02*
D03*
D36*
X365142Y340939D02*
D03*
X364492Y340564D02*
D03*
X364767Y341588D02*
D03*
X365791Y341314D02*
D03*
X365517Y340289D02*
D03*
X364867Y339914D02*
D03*
X366166Y340664D02*
D03*
X365416Y341963D02*
D03*
X364117Y341213D02*
D03*
D37*
X363725Y347155D02*
D03*
X364225Y348021D02*
D03*
D38*
X362452Y341264D02*
D03*
X362702Y340831D02*
D03*
X362202Y341697D02*
D03*
X364791Y338307D02*
D03*
X374191Y334107D02*
D03*
X377965Y333835D02*
D03*
X361791Y344107D02*
D03*
X363991Y344307D02*
D03*
X366991Y336307D02*
D03*
X366591Y336907D02*
D03*
X365991Y335307D02*
D03*
X364991Y342807D02*
D03*
X366491Y349007D02*
D03*
X366691Y338507D02*
D03*
X366535Y346850D02*
D03*
X365488Y343017D02*
D03*
X364134Y342351D02*
D03*
X365961Y338787D02*
D03*
X365331Y338077D02*
D03*
X364025Y338939D02*
D03*
X363045Y341837D02*
D03*
X363068Y342197D02*
D03*
X363501Y342447D02*
D03*
X363934Y342697D02*
D03*
X364367Y342947D02*
D03*
X364117Y343380D02*
D03*
X363867Y343813D02*
D03*
X363617Y344246D02*
D03*
X363367Y344679D02*
D03*
X362934Y344429D02*
D03*
X362501Y344179D02*
D03*
X362068Y343929D02*
D03*
X361635Y343679D02*
D03*
D39*
X374016Y332677D02*
D03*
X365171Y337753D02*
D03*
X382791Y350307D02*
D03*
X384191Y346507D02*
D03*
X365991Y345907D02*
D03*
X368391Y349307D02*
D03*
M02*
